<svg xmlns="http://www.w3.org/2000/svg" viewBox="0 0 64 64">
  <defs>
    <linearGradient id="g" x1="0" y1="0" x2="0" y2="1">
      <stop offset="0%" stop-color="#f59e0b"/>
      <stop offset="100%" stop-color="#d97706"/>
    </linearGradient>
  </defs>
  <!-- Bunker dome -->
  <path d="M8 44 Q8 18 32 12 Q56 18 56 44 Z" fill="#292524" stroke="#78716c" stroke-width="2"/>
  <!-- Door -->
  <rect x="24" y="32" width="16" height="16" rx="2" fill="#1c1917" stroke="#78716c" stroke-width="1.5"/>
  <circle cx="36" cy="40" r="2" fill="#78716c"/>
  <!-- Radiation symbol -->
  <g transform="translate(32,26)" fill="url(#g)">
    <circle r="3"/>
    <path d="M0,-3 A3,3 0 0,1 2.6,1.5 L7.8,4.5 A12,12 0 0,0 0,-12 Z"/>
    <path d="M2.6,1.5 A3,3 0 0,1 -2.6,1.5 L-7.8,4.5 A12,12 0 0,0 7.8,4.5 Z"/>
    <path d="M-2.6,1.5 A3,3 0 0,1 0,-3 L0,-12 A12,12 0 0,0 -7.8,4.5 Z"/>
  </g>
  <!-- Ground -->
  <rect x="4" y="44" width="56" height="8" rx="2" fill="#44403c"/>
</svg>
